# Blender 4.3.2
# www.blender.org
o Barricade
v 1.637739 1.457789 3.286810
v -0.370372 1.457789 3.286811
v 1.637739 2.616782 3.286810
v -0.370372 2.616782 3.286811
v 1.637739 1.457789 3.627403
v 1.637739 2.616782 3.627403
v -0.615370 2.737160 3.853972
v 1.766200 2.737160 3.853972
v -0.615370 2.737160 3.211232
v 1.766200 2.737160 3.211233
v 1.766200 2.454647 3.853972
v -0.615370 2.454647 3.211233
v 1.766200 2.454647 3.211233
vn -0.0000 -0.0000 -1.0000
vn 1.0000 -0.0000 -0.0000
vn -0.0000 1.0000 -0.0000
vt 0.499138 0.126171
vt 0.499138 0.762926
vt 0.131632 0.762926
vt 0.131632 0.126172
vt 0.131632 0.018173
vt 0.499138 0.018173
vt 0.866198 0.977154
vt 0.111024 0.977154
vt 0.111023 0.773347
vt 0.866198 0.773347
vt 0.111023 0.018173
vt 0.021441 0.773347
vt 0.021441 0.018173
vt 0.021441 0.977155
s 0
f 1/1/1 2/2/1 4/3/1 3/4/1
f 1/1/2 3/4/2 6/5/2 5/6/2
f 7/7/3 8/8/3 10/9/3 9/10/3
f 9/11/1 10/9/1 13/12/1 12/13/1
f 10/9/2 8/8/2 11/14/2 13/12/2
