# Blender 4.3.2
# www.blender.org
o Cube.001
v 5.495131 1.873170 2.894825
v 5.857625 1.227849 2.170744
v 5.754711 1.951411 2.214704
v 6.274872 1.229621 3.118392
v 6.171958 1.953184 3.162351
v 6.534451 1.307862 2.438271
v 6.431538 2.031425 2.482231
vn 0.3545 0.1069 -0.9289
vn 0.9244 0.1093 0.3654
vn -0.1406 0.9882 0.0600
vt 0.375000 0.250000
vt 0.625000 0.250000
vt 0.625000 0.500000
vt 0.375000 0.500000
vt 0.625000 0.750000
vt 0.375000 0.750000
vt 0.875000 0.500000
vt 0.875000 0.750000
s 0
f 2/1/1 3/2/1 7/3/1 6/4/1
f 6/4/2 7/3/2 5/5/2 4/6/2
f 7/3/3 3/7/3 1/8/3 5/5/3
