# Blender 4.3.2
# www.blender.org
o Plane.006
v -3.342007 1.321371 3.203573
v -1.342007 1.321371 3.203573
v -3.342007 1.321371 -3.203573
v -1.342007 1.321371 -3.203573
v -3.342007 1.321371 -1.067858
v -3.342007 1.321371 1.067858
v -1.342007 1.321371 1.067858
v -1.342007 1.321371 -1.067858
v -6.249181 1.321371 -1.067858
v -6.249181 1.321371 1.067858
vn -0.0000 1.0000 -0.0000
vt 0.556780 0.657404
vt 0.856192 0.657404
vt 0.856192 0.977134
vt 0.556780 0.977134
vt 0.556780 0.017945
vt 0.856192 0.017945
vt 0.856192 0.337674
vt 0.556780 0.337674
vt 0.121559 0.657404
vt 0.121559 0.337674
s 0
f 5/1/1 8/2/1 4/3/1 3/4/1
f 1/5/1 2/6/1 7/7/1 6/8/1
f 6/8/1 7/7/1 8/2/1 5/1/1
f 6/8/1 5/1/1 9/9/1 10/10/1
