# Blender 4.3.2
# www.blender.org
mtllib shipbow.mtl
o Barricade
v 1.637739 1.457789 3.286810
v -0.370372 1.457789 3.286811
v 1.637739 2.616782 3.286810
v -0.370372 2.616782 3.286811
v 1.637739 1.457789 3.627403
v 1.637739 2.616782 3.627403
v -0.615370 2.737160 3.853972
v 1.766200 2.737160 3.853972
v -0.615370 2.737160 3.211232
v 1.766200 2.737160 3.211233
v 1.766200 2.454647 3.853972
v -0.615370 2.454647 3.211233
v 1.766200 2.454647 3.211233
vn -0.0000 -0.0000 -1.0000
vn 1.0000 -0.0000 -0.0000
vn -0.0000 1.0000 -0.0000
vt 0.499138 0.126171
vt 0.499138 0.762926
vt 0.131632 0.762926
vt 0.131632 0.126172
vt 0.131632 0.018173
vt 0.499138 0.018173
vt 0.866198 0.977154
vt 0.111024 0.977154
vt 0.111023 0.773347
vt 0.866198 0.773347
vt 0.111023 0.018173
vt 0.021441 0.773347
vt 0.021441 0.018173
vt 0.021441 0.977155
s 0
usemtl Barricade
f 1/1/1 2/2/1 4/3/1 3/4/1
f 1/1/2 3/4/2 6/5/2 5/6/2
f 7/7/3 8/8/3 10/9/3 9/10/3
f 9/11/1 10/9/1 13/12/1 12/13/1
f 10/9/2 8/8/2 11/14/2 13/12/2
o Barricade.001
v 7.413956 1.457789 3.243980
v 5.405845 1.457789 3.243981
v 7.413956 2.616782 3.243980
v 5.405845 2.616782 3.243981
v 7.413956 1.457789 3.584573
v 7.413956 2.616782 3.584573
v 5.160847 2.737160 3.811143
v 7.542417 2.737160 3.811143
v 5.160847 2.737160 3.168403
v 7.542417 2.737160 3.168403
v 7.542417 2.454647 3.811143
v 5.160847 2.454647 3.168403
v 7.542417 2.454647 3.168403
v 1.165174 1.197240 -3.056195
v -0.842937 1.197240 -3.056196
v 1.165174 2.356232 -3.056195
v -0.842937 2.356232 -3.056196
v 1.165174 1.197240 -3.396787
v 1.165174 2.356232 -3.396788
v -1.087935 2.476610 -3.623359
v 1.293635 2.476610 -3.623358
v -1.087935 2.476611 -2.980618
v 1.293635 2.476611 -2.980618
v 1.293635 2.194098 -3.623358
v -1.087935 2.194098 -2.980618
v 1.293635 2.194098 -2.980618
v 7.511611 1.197240 -3.056195
v 5.503500 1.197240 -3.056196
v 7.511611 2.356232 -3.056195
v 5.503500 2.356232 -3.056197
v 7.511611 1.197240 -3.396788
v 7.511611 2.356232 -3.396788
v 5.258502 2.476610 -3.623359
v 7.640071 2.476610 -3.623359
v 5.258502 2.476611 -2.980618
v 7.640072 2.476611 -2.980618
v 7.640071 2.194098 -3.623358
v 5.258502 2.194098 -2.980618
v 7.640072 2.194098 -2.980618
v 4.332318 1.197240 -3.056195
v 2.324207 1.197240 -3.056196
v 4.332318 2.356232 -3.056195
v 2.324207 2.356232 -3.056196
v 4.332318 1.197240 -3.396788
v 4.332318 2.356232 -3.396788
v 2.079209 2.476610 -3.623359
v 4.460779 2.476610 -3.623358
v 2.079209 2.476611 -2.980618
v 4.460779 2.476611 -2.980618
v 4.460779 2.194098 -3.623358
v 2.079209 2.194098 -2.980618
v 4.460779 2.194098 -2.980618
v -1.612113 1.457789 2.546515
v -2.753510 1.457789 0.894327
v -1.612113 2.616782 2.546515
v -2.753510 2.616782 0.894327
v -1.892338 1.457789 2.740105
v -1.892338 2.616782 2.740105
v -3.359402 2.737160 1.015124
v -2.005733 2.737160 2.974578
v -2.830583 2.737160 0.649795
v -1.476915 2.737160 2.609249
v -2.005733 2.454648 2.974578
v -2.830583 2.454647 0.649795
v -1.476915 2.454647 2.609249
v -1.833880 1.457789 -2.654322
v -2.975277 1.457789 -1.002135
v -1.833880 2.616782 -2.654323
v -2.975277 2.616782 -1.002135
v -2.114105 1.457789 -2.847913
v -2.114105 2.616782 -2.847913
v -3.581168 2.737160 -1.122931
v -2.227502 2.737160 -3.082386
v -3.052350 2.737160 -0.757603
v -1.698683 2.737160 -2.717057
v -2.227502 2.454647 -3.082386
v -3.052350 2.454648 -0.757603
v -1.698683 2.454647 -2.717057
vn -0.0000 -0.0000 -1.0000
vn 1.0000 -0.0000 -0.0000
vn -0.0000 1.0000 -0.0000
vn -0.0000 -0.0000 1.0000
vn 0.8228 -0.0000 -0.5684
vn 0.5684 -0.0000 0.8228
vn 0.8228 -0.0000 0.5684
vn 0.5684 -0.0000 -0.8228
vt 0.499138 0.126171
vt 0.499138 0.762926
vt 0.131632 0.762926
vt 0.131632 0.126172
vt 0.131632 0.018173
vt 0.499138 0.018173
vt 0.866198 0.977154
vt 0.111024 0.977154
vt 0.111023 0.773347
vt 0.866198 0.773347
vt 0.111023 0.018173
vt 0.021441 0.773347
vt 0.021441 0.018173
vt 0.021441 0.977155
s 0
usemtl Barricade
f 14/15/4 15/16/4 17/17/4 16/18/4
f 14/15/5 16/18/5 19/19/5 18/20/5
f 20/21/6 21/22/6 23/23/6 22/24/6
f 22/25/4 23/23/4 26/26/4 25/27/4
f 23/23/5 21/22/5 24/28/5 26/26/5
f 27/15/7 29/18/7 30/17/7 28/16/7
f 27/15/5 31/20/5 32/19/5 29/18/5
f 33/21/6 35/24/6 36/23/6 34/22/6
f 35/25/7 38/27/7 39/26/7 36/23/7
f 36/23/5 39/26/5 37/28/5 34/22/5
f 40/15/7 42/18/7 43/17/7 41/16/7
f 40/15/5 44/20/5 45/19/5 42/18/5
f 46/21/6 48/24/6 49/23/6 47/22/6
f 48/25/7 51/27/7 52/26/7 49/23/7
f 49/23/5 52/26/5 50/28/5 47/22/5
f 53/15/7 55/18/7 56/17/7 54/16/7
f 53/15/5 57/20/5 58/19/5 55/18/5
f 59/21/6 61/24/6 62/23/6 60/22/6
f 61/25/7 64/27/7 65/26/7 62/23/7
f 62/23/5 65/26/5 63/28/5 60/22/5
f 66/15/8 67/16/8 69/17/8 68/18/8
f 66/15/9 68/18/9 71/19/9 70/20/9
f 72/21/6 73/22/6 75/23/6 74/24/6
f 74/25/8 75/23/8 78/26/8 77/27/8
f 75/23/9 73/22/9 76/28/9 78/26/9
f 79/15/10 81/18/10 82/17/10 80/16/10
f 79/15/11 83/20/11 84/19/11 81/18/11
f 85/21/6 87/24/6 88/23/6 86/22/6
f 87/25/10 90/27/10 91/26/10 88/23/10
f 88/23/11 91/26/11 89/28/11 86/22/11
o Cube.001
v 5.495131 1.873170 2.894825
v 5.857625 1.227849 2.170744
v 5.754711 1.951411 2.214704
v 6.274872 1.229621 3.118392
v 6.171958 1.953184 3.162351
v 6.534451 1.307862 2.438271
v 6.431538 2.031425 2.482231
vn 0.3545 0.1069 -0.9289
vn 0.9244 0.1093 0.3654
vn -0.1406 0.9882 0.0600
vt 0.375000 0.250000
vt 0.625000 0.250000
vt 0.625000 0.500000
vt 0.375000 0.500000
vt 0.625000 0.750000
vt 0.375000 0.750000
vt 0.875000 0.500000
vt 0.875000 0.750000
s 0
usemtl Cube.002
f 93/29/12 94/30/12 98/31/12 97/32/12
f 97/32/13 98/31/13 96/33/13 95/34/13
f 98/31/14 94/35/14 92/36/14 96/33/14
o Cube.003
v 6.933943 1.873171 -3.058786
v 7.421569 1.227849 -2.412323
v 7.427912 1.951411 -2.524053
v 6.387209 1.229621 -2.459570
v 6.393553 1.953184 -2.571300
v 6.881178 1.307862 -1.924836
v 6.887522 2.031425 -2.036566
v 6.298002 1.814254 2.824875
v 6.771156 1.319557 2.423067
v 6.685368 1.874233 2.423159
v 6.780796 1.320915 3.216764
v 6.695008 1.875591 3.216856
v 7.168162 1.380894 2.815048
v 7.082374 1.935570 2.815140
v 6.035070 1.814254 -2.777224
v 6.581132 1.319556 -2.482026
v 6.549930 1.874233 -2.561939
v 5.844977 1.320915 -2.185166
v 5.813775 1.875591 -2.265079
v 6.359837 1.380894 -1.969881
v 6.328635 1.935570 -2.049795
v -1.921086 1.986048 -2.766736
v -1.115780 1.335277 -2.777388
v -1.193122 2.062886 -2.751498
v -1.856170 1.231088 -2.061077
v -1.933513 1.958696 -2.035187
v -1.128207 1.307926 -2.045838
v -1.205550 2.035535 -2.019949
v -1.873322 1.829609 2.151607
v -1.407030 1.296092 1.793861
v -1.420573 1.856544 1.820973
v -1.528326 1.255264 2.577233
v -1.541869 1.815716 2.604345
v -1.075577 1.282199 2.246600
v -1.089120 1.842651 2.273712
vn 0.6747 0.1069 0.7303
vn -0.7381 0.1093 0.6658
vn 0.0087 0.9882 -0.1526
vn 0.6902 0.1069 -0.7157
vn 0.7073 0.1093 0.6984
vn -0.1528 0.9882 0.0002
vn 0.9173 0.1069 0.3836
vn -0.3943 0.1093 0.9125
vn -0.0556 0.9882 -0.1424
vn 0.9943 0.1049 0.0208
vn -0.0170 -0.0374 0.9992
vn -0.1056 0.9938 0.0354
vn 0.8066 0.0480 -0.5891
vn 0.5905 -0.0248 0.8066
vn -0.0241 0.9985 0.0483
vt 0.375000 0.250000
vt 0.625000 0.250000
vt 0.625000 0.500000
vt 0.375000 0.500000
vt 0.625000 0.750000
vt 0.375000 0.750000
vt 0.875000 0.500000
vt 0.875000 0.750000
s 0
usemtl Cube.002
f 100/37/15 101/38/15 105/39/15 104/40/15
f 104/40/16 105/39/16 103/41/16 102/42/16
f 105/39/17 101/43/17 99/44/17 103/41/17
f 107/37/18 108/38/18 112/39/18 111/40/18
f 111/40/19 112/39/19 110/41/19 109/42/19
f 112/39/20 108/43/20 106/44/20 110/41/20
f 114/37/21 115/38/21 119/39/21 118/40/21
f 118/40/22 119/39/22 117/41/22 116/42/22
f 119/39/23 115/43/23 113/44/23 117/41/23
f 121/37/24 122/38/24 126/39/24 125/40/24
f 125/40/25 126/39/25 124/41/25 123/42/25
f 126/39/26 122/43/26 120/44/26 124/41/26
f 128/37/27 129/38/27 133/39/27 132/40/27
f 132/40/28 133/39/28 131/41/28 130/42/28
f 133/39/29 129/43/29 127/44/29 131/41/29
o Plane.006
v -3.342007 1.321371 3.203573
v -1.342007 1.321371 3.203573
v -3.342007 1.321371 -3.203573
v -1.342007 1.321371 -3.203573
v -3.342007 1.321371 -1.067858
v -3.342007 1.321371 1.067858
v -1.342007 1.321371 1.067858
v -1.342007 1.321371 -1.067858
v -6.249181 1.321371 -1.067858
v -6.249181 1.321371 1.067858
vn -0.0000 1.0000 -0.0000
vt 0.556780 0.657404
vt 0.856192 0.657404
vt 0.856192 0.977134
vt 0.556780 0.977134
vt 0.556780 0.017945
vt 0.856192 0.017945
vt 0.856192 0.337674
vt 0.556780 0.337674
vt 0.121559 0.657404
vt 0.121559 0.337674
s 0
usemtl Plane.006
f 138/45/30 141/46/30 137/47/30 136/48/30
f 134/49/30 135/50/30 140/51/30 139/52/30
f 139/52/30 140/51/30 141/46/30 138/45/30
f 139/52/30 138/45/30 142/53/30 143/54/30
o Plane.001
v -1.538985 1.325417 0.026844
v 1.702645 1.325417 0.026844
v -1.538985 1.325417 3.268475
v 1.702645 1.325417 3.268475
vn -0.0000 1.0000 -0.0000
vt 0.004951 0.004951
vt 0.995049 0.004951
vt 0.995049 0.995049
vt 0.004951 0.995049
s 0
usemtl Planks2
f 144/55/31 146/58/31 147/57/31 145/56/31
o Plane.002
v 1.564726 1.325417 0.056042
v 4.806356 1.325417 0.056042
v 1.564726 1.325417 3.297672
v 4.806356 1.325417 3.297672
vn -0.0000 1.0000 -0.0000
vt 0.004951 0.004951
vt 0.995049 0.004951
vt 0.995049 0.995049
vt 0.004951 0.995049
s 0
usemtl BrokenPlanks
f 148/59/32 150/62/32 151/61/32 149/60/32
o Plane.003
v -1.406896 1.325417 0.058229
v 1.834734 1.325417 0.058229
v -1.406896 1.325417 -3.183402
v 1.834734 1.325417 -3.183402
vn -0.0000 1.0000 -0.0000
vt 0.004951 0.004951
vt 0.995049 0.004951
vt 0.995049 0.995049
vt 0.004951 0.995049
s 0
usemtl Planks2
f 152/63/33 153/64/33 155/65/33 154/66/33
o Plane.005
v 4.748314 1.325417 0.058229
v 7.989944 1.325417 0.058229
v 4.748314 1.325417 -3.183402
v 7.989944 1.325417 -3.183402
vn -0.0000 1.0000 -0.0000
vt 0.004951 0.004951
vt 0.995049 0.004951
vt 0.995049 0.995049
vt 0.004951 0.995049
s 0
usemtl Planks2
f 156/67/34 157/68/34 159/69/34 158/70/34
o Plane.007
v 6.584311 2.242287 0.632875
v 7.224262 1.276087 0.632875
v 6.584311 2.242287 -0.526038
v 7.224262 1.276087 -0.526038
vn 0.8337 0.5522 -0.0000
vt 0.019260 0.011422
vt 0.984111 0.011422
vt 0.984111 0.976274
vt 0.019260 0.976274
s 0
usemtl Plane.007
f 160/71/35 161/72/35 163/73/35 162/74/35
o Plane.008
v 4.717880 1.325417 0.056042
v 7.959511 1.325417 0.056042
v 4.717880 1.325417 3.297672
v 7.959511 1.325417 3.297672
vn -0.0000 1.0000 -0.0000
vt 0.004951 0.004951
vt 0.995049 0.004951
vt 0.995049 0.995049
vt 0.004951 0.995049
s 0
usemtl Plane.001
f 164/75/36 166/78/36 167/77/36 165/76/36
o Plane.004
v 1.637743 1.325417 0.078089
v 4.879373 1.325417 0.078089
v 1.637743 1.325417 -3.163541
v 4.879373 1.325417 -3.163541
vn -0.0000 1.0000 -0.0000
vt 0.004951 0.004951
vt 0.995049 0.004951
vt 0.995049 0.995049
vt 0.004951 0.995049
s 0
usemtl Plane.001
f 168/79/37 169/80/37 171/81/37 170/82/37
o Plane
v 8.468104 -0.637698 3.278075
v 8.468104 -0.637698 -3.204069
v 7.950637 1.294199 3.278075
v 7.950636 1.294199 -3.204069
vn 0.9659 0.2587 -0.0000
vt 0.989155 0.991268
vt 0.005943 0.991268
vt 0.005943 0.687908
vt 0.989155 0.687908
s 0
usemtl Plane
f 172/83/38 173/84/38 175/85/38 174/86/38
